<svg width="36" height="36" viewBox="0 0 36 36" fill="none" xmlns="http://www.w3.org/2000/svg">
<g filter="url(#filter0_d_77_551)">
<circle cx="16" cy="16" r="15.5" transform="matrix(-1 0 0 1 34 2)" stroke="#333333" shape-rendering="crispEdges"/>
</g>
<path d="M15.472 13.5327C15.1778 13.2411 15.1757 12.7662 15.4673 12.472C15.7589 12.1778 16.2338 12.1757 16.528 12.4673L18.3227 14.2461C18.9987 14.916 19.5511 15.4636 19.9429 15.9515C20.3504 16.4588 20.6453 16.9737 20.7241 17.5918C20.7586 17.8629 20.7586 18.1371 20.7241 18.4082C20.6453 19.0263 20.3504 19.5412 19.9429 20.0485C19.5511 20.5364 18.9987 21.084 18.3227 21.7539L16.528 23.5327C16.2338 23.8243 15.7589 23.8222 15.4673 23.528C15.1757 23.2338 15.1778 22.7589 15.472 22.4673L17.235 20.72C17.9505 20.0109 18.4413 19.5228 18.7734 19.1093C19.096 18.7076 19.2067 18.4496 19.2361 18.2185C19.2546 18.0734 19.2546 17.9266 19.2361 17.7815C19.2067 17.5504 19.096 17.2924 18.7734 16.8907C18.4413 16.4772 17.9505 15.9891 17.235 15.28L15.472 13.5327Z" fill="#DDDDDD"/>
<defs>
<filter id="filter0_d_77_551" x="0" y="0" width="36" height="36" filterUnits="userSpaceOnUse" color-interpolation-filters="sRGB">
<feFlood flood-opacity="0" result="BackgroundImageFix"/>
<feColorMatrix in="SourceAlpha" type="matrix" values="0 0 0 0 0 0 0 0 0 0 0 0 0 0 0 0 0 0 127 0" result="hardAlpha"/>
<feOffset/>
<feGaussianBlur stdDeviation="1"/>
<feComposite in2="hardAlpha" operator="out"/>
<feColorMatrix type="matrix" values="0 0 0 0 1 0 0 0 0 1 0 0 0 0 1 0 0 0 0.2 0"/>
<feBlend mode="normal" in2="BackgroundImageFix" result="effect1_dropShadow_77_551"/>
<feBlend mode="normal" in="SourceGraphic" in2="effect1_dropShadow_77_551" result="shape"/>
</filter>
</defs>
</svg>
